<mxfile host="app.diagrams.net" agent="Mozilla/5.0 (Windows NT 10.0; Win64; x64) AppleWebKit/537.36 (KHTML, like Gecko) Chrome/127.0.0.0 Safari/537.36 Edg/127.0.0.0" version="24.7.7">
  <diagram name="第 1 页" id="UB9lJcS-LYD_0BkvbkBf">
    <mxGraphModel dx="1516" dy="829" grid="0" gridSize="10" guides="1" tooltips="1" connect="1" arrows="1" fold="1" page="0" pageScale="1" pageWidth="827" pageHeight="1169" math="0" shadow="0">
      <root>
        <mxCell id="0" />
        <mxCell id="1" parent="0" />
        <mxCell id="nndgGZtHMAi_NlpYqzj6-47" value="" style="rounded=0;whiteSpace=wrap;html=1;dashed=1;" vertex="1" parent="1">
          <mxGeometry x="658" y="327" width="157" height="621" as="geometry" />
        </mxCell>
        <mxCell id="nndgGZtHMAi_NlpYqzj6-16" value="" style="rounded=0;whiteSpace=wrap;html=1;dashed=1;" vertex="1" parent="1">
          <mxGeometry x="42" y="329" width="168" height="619" as="geometry" />
        </mxCell>
        <mxCell id="meFjSfEneH2rQGpEeACA-43" value="" style="rounded=0;whiteSpace=wrap;html=1;dashed=1;" parent="1" vertex="1">
          <mxGeometry x="245" y="502" width="375" height="122" as="geometry" />
        </mxCell>
        <mxCell id="meFjSfEneH2rQGpEeACA-19" value="" style="rounded=0;whiteSpace=wrap;html=1;dashed=1;" parent="1" vertex="1">
          <mxGeometry x="245" y="329" width="373" height="147" as="geometry" />
        </mxCell>
        <mxCell id="BHILhPmPWaK3Ac5AjfFu-1" value="&lt;font style=&quot;font-size: 16px;&quot;&gt;&lt;b&gt;技术路线图&lt;/b&gt;&lt;/font&gt;" style="rounded=1;whiteSpace=wrap;html=1;fillColor=#e1d5e7;strokeColor=#9673a6;" parent="1" vertex="1">
          <mxGeometry x="255" y="173" width="321" height="42" as="geometry" />
        </mxCell>
        <mxCell id="nndgGZtHMAi_NlpYqzj6-18" value="" style="edgeStyle=orthogonalEdgeStyle;rounded=0;orthogonalLoop=1;jettySize=auto;html=1;strokeWidth=2;" edge="1" parent="1">
          <mxGeometry relative="1" as="geometry">
            <mxPoint x="125.8" y="267" as="sourcePoint" />
            <mxPoint x="125.8" y="329" as="targetPoint" />
          </mxGeometry>
        </mxCell>
        <mxCell id="BHILhPmPWaK3Ac5AjfFu-2" value="&lt;font style=&quot;font-size: 15px;&quot;&gt;研究步骤&lt;/font&gt;" style="rounded=1;whiteSpace=wrap;html=1;fillColor=#f8cecc;strokeColor=#b85450;" parent="1" vertex="1">
          <mxGeometry x="66.5" y="264" width="117" height="36" as="geometry" />
        </mxCell>
        <mxCell id="BHILhPmPWaK3Ac5AjfFu-4" value="&lt;font style=&quot;font-size: 15px;&quot;&gt;研究方法&lt;/font&gt;" style="rounded=1;whiteSpace=wrap;html=1;fillColor=#f8cecc;strokeColor=#b85450;" parent="1" vertex="1">
          <mxGeometry x="672.75" y="264" width="132" height="37" as="geometry" />
        </mxCell>
        <mxCell id="BHILhPmPWaK3Ac5AjfFu-5" value="&lt;font style=&quot;font-size: 15px;&quot;&gt;研究内容&lt;/font&gt;" style="rounded=1;whiteSpace=wrap;html=1;fillColor=#f8cecc;strokeColor=#b85450;" parent="1" vertex="1">
          <mxGeometry x="354.5" y="264" width="122" height="36" as="geometry" />
        </mxCell>
        <mxCell id="BHILhPmPWaK3Ac5AjfFu-8" value="&lt;font style=&quot;font-size: 15px;&quot;&gt;研究准备阶段&lt;/font&gt;" style="rounded=1;whiteSpace=wrap;html=1;fillColor=#ffe6cc;strokeColor=#d79b00;" parent="1" vertex="1">
          <mxGeometry x="57.5" y="362" width="135" height="48" as="geometry" />
        </mxCell>
        <mxCell id="BHILhPmPWaK3Ac5AjfFu-11" value="&lt;font style=&quot;font-size: 15px;&quot;&gt;数据整理阶段&lt;/font&gt;" style="rounded=1;whiteSpace=wrap;html=1;fillColor=#ffe6cc;strokeColor=#d79b00;" parent="1" vertex="1">
          <mxGeometry x="57.5" y="531" width="135" height="48" as="geometry" />
        </mxCell>
        <mxCell id="nndgGZtHMAi_NlpYqzj6-2" value="" style="edgeStyle=orthogonalEdgeStyle;rounded=0;orthogonalLoop=1;jettySize=auto;html=1;strokeWidth=1.5;" edge="1" parent="1" source="BHILhPmPWaK3Ac5AjfFu-12" target="nndgGZtHMAi_NlpYqzj6-1">
          <mxGeometry relative="1" as="geometry" />
        </mxCell>
        <mxCell id="BHILhPmPWaK3Ac5AjfFu-12" value="&lt;font style=&quot;font-size: 15px;&quot;&gt;数据可视化&lt;/font&gt;" style="rounded=1;whiteSpace=wrap;html=1;fillColor=#ffe6cc;strokeColor=#d79b00;" parent="1" vertex="1">
          <mxGeometry x="57.5" y="696" width="135" height="48" as="geometry" />
        </mxCell>
        <mxCell id="nndgGZtHMAi_NlpYqzj6-27" value="" style="edgeStyle=orthogonalEdgeStyle;rounded=0;orthogonalLoop=1;jettySize=auto;html=1;strokeWidth=1.5;" edge="1" parent="1" source="BHILhPmPWaK3Ac5AjfFu-15" target="nndgGZtHMAi_NlpYqzj6-26">
          <mxGeometry relative="1" as="geometry" />
        </mxCell>
        <mxCell id="BHILhPmPWaK3Ac5AjfFu-15" value="&lt;font style=&quot;font-size: 15px;&quot;&gt;结果分析与讨论&lt;/font&gt;" style="rounded=1;whiteSpace=wrap;html=1;fillColor=#ffe6cc;strokeColor=#d79b00;" parent="1" vertex="1">
          <mxGeometry x="57.5" y="861" width="135" height="48" as="geometry" />
        </mxCell>
        <mxCell id="meFjSfEneH2rQGpEeACA-3" value="" style="endArrow=classic;html=1;rounded=0;exitX=0.5;exitY=1;exitDx=0;exitDy=0;entryX=0.5;entryY=0;entryDx=0;entryDy=0;strokeWidth=1.5;" parent="1" source="BHILhPmPWaK3Ac5AjfFu-1" target="BHILhPmPWaK3Ac5AjfFu-5" edge="1">
          <mxGeometry width="50" height="50" relative="1" as="geometry">
            <mxPoint x="296" y="432" as="sourcePoint" />
            <mxPoint x="346" y="382" as="targetPoint" />
            <Array as="points" />
          </mxGeometry>
        </mxCell>
        <mxCell id="meFjSfEneH2rQGpEeACA-5" value="" style="endArrow=classic;html=1;rounded=0;entryX=0.5;entryY=0;entryDx=0;entryDy=0;strokeWidth=1.5;" parent="1" target="BHILhPmPWaK3Ac5AjfFu-4" edge="1">
          <mxGeometry width="50" height="50" relative="1" as="geometry">
            <mxPoint x="415" y="236" as="sourcePoint" />
            <mxPoint x="765" y="263" as="targetPoint" />
            <Array as="points">
              <mxPoint x="739" y="236" />
            </Array>
          </mxGeometry>
        </mxCell>
        <mxCell id="meFjSfEneH2rQGpEeACA-6" value="" style="endArrow=classic;html=1;rounded=0;entryX=0.5;entryY=0;entryDx=0;entryDy=0;strokeWidth=1.5;" parent="1" target="BHILhPmPWaK3Ac5AjfFu-2" edge="1">
          <mxGeometry width="50" height="50" relative="1" as="geometry">
            <mxPoint x="415" y="236" as="sourcePoint" />
            <mxPoint x="346" y="382" as="targetPoint" />
            <Array as="points">
              <mxPoint x="125" y="236" />
            </Array>
          </mxGeometry>
        </mxCell>
        <mxCell id="meFjSfEneH2rQGpEeACA-15" value="" style="endArrow=classic;html=1;rounded=0;exitX=1;exitY=0.5;exitDx=0;exitDy=0;entryX=0;entryY=0.388;entryDx=0;entryDy=0;entryPerimeter=0;strokeWidth=1.5;" parent="1" source="BHILhPmPWaK3Ac5AjfFu-8" target="meFjSfEneH2rQGpEeACA-19" edge="1">
          <mxGeometry width="50" height="50" relative="1" as="geometry">
            <mxPoint x="195" y="542" as="sourcePoint" />
            <mxPoint x="232" y="386" as="targetPoint" />
          </mxGeometry>
        </mxCell>
        <mxCell id="meFjSfEneH2rQGpEeACA-33" value="" style="edgeStyle=orthogonalEdgeStyle;rounded=0;orthogonalLoop=1;jettySize=auto;html=1;" parent="1" source="meFjSfEneH2rQGpEeACA-20" target="meFjSfEneH2rQGpEeACA-32" edge="1">
          <mxGeometry relative="1" as="geometry">
            <Array as="points">
              <mxPoint x="341" y="395" />
              <mxPoint x="341" y="436" />
            </Array>
          </mxGeometry>
        </mxCell>
        <mxCell id="meFjSfEneH2rQGpEeACA-34" value="" style="edgeStyle=orthogonalEdgeStyle;rounded=0;orthogonalLoop=1;jettySize=auto;html=1;entryX=0;entryY=0.5;entryDx=0;entryDy=0;" parent="1" source="meFjSfEneH2rQGpEeACA-20" target="meFjSfEneH2rQGpEeACA-21" edge="1">
          <mxGeometry relative="1" as="geometry">
            <Array as="points">
              <mxPoint x="341" y="395" />
              <mxPoint x="341" y="362" />
            </Array>
          </mxGeometry>
        </mxCell>
        <mxCell id="meFjSfEneH2rQGpEeACA-20" value="基础理论及技能学习" style="ellipse;whiteSpace=wrap;html=1;fillColor=#f5f5f5;fontColor=#333333;strokeColor=#666666;" parent="1" vertex="1">
          <mxGeometry x="259" y="362.5" width="69" height="65.5" as="geometry" />
        </mxCell>
        <mxCell id="meFjSfEneH2rQGpEeACA-21" value="学习相关水团性质、环流路径，了解国内外相关研究进展" style="rounded=1;whiteSpace=wrap;html=1;fillColor=#f5f5f5;fontColor=#333333;strokeColor=#666666;" parent="1" vertex="1">
          <mxGeometry x="364" y="336" width="176" height="52" as="geometry" />
        </mxCell>
        <mxCell id="meFjSfEneH2rQGpEeACA-32" value="掌握数据可视化工具，学习水团分析方法" style="rounded=1;whiteSpace=wrap;html=1;fillColor=#f5f5f5;fontColor=#333333;strokeColor=#666666;" parent="1" vertex="1">
          <mxGeometry x="364" y="410" width="176" height="52" as="geometry" />
        </mxCell>
        <mxCell id="nndgGZtHMAi_NlpYqzj6-29" value="" style="edgeStyle=orthogonalEdgeStyle;rounded=0;orthogonalLoop=1;jettySize=auto;html=1;strokeWidth=1.5;" edge="1" parent="1" source="meFjSfEneH2rQGpEeACA-35" target="meFjSfEneH2rQGpEeACA-19">
          <mxGeometry relative="1" as="geometry">
            <Array as="points">
              <mxPoint x="637" y="405" />
              <mxPoint x="637" y="405" />
            </Array>
          </mxGeometry>
        </mxCell>
        <mxCell id="meFjSfEneH2rQGpEeACA-35" value="文献阅读并归纳整理&lt;div&gt;&lt;br&gt;&lt;div&gt;参照相关说明书学习使用工具(matplotlib、seaborn、cartopy等)&lt;/div&gt;&lt;/div&gt;" style="rounded=1;whiteSpace=wrap;html=1;fillColor=#d5e8d4;strokeColor=#82b366;" parent="1" vertex="1">
          <mxGeometry x="681" y="333" width="113" height="144" as="geometry" />
        </mxCell>
        <mxCell id="meFjSfEneH2rQGpEeACA-37" value="" style="shape=flexArrow;endArrow=classic;html=1;rounded=0;fillColor=#dae8fc;strokeColor=#6c8ebf;" parent="1" edge="1">
          <mxGeometry width="50" height="50" relative="1" as="geometry">
            <mxPoint x="124.63999999999999" y="419" as="sourcePoint" />
            <mxPoint x="124.63999999999999" y="526" as="targetPoint" />
          </mxGeometry>
        </mxCell>
        <mxCell id="meFjSfEneH2rQGpEeACA-38" value="" style="shape=flexArrow;endArrow=classic;html=1;rounded=0;fillColor=#dae8fc;strokeColor=#6c8ebf;" parent="1" edge="1">
          <mxGeometry width="50" height="50" relative="1" as="geometry">
            <mxPoint x="124.57" y="583" as="sourcePoint" />
            <mxPoint x="124.57" y="690" as="targetPoint" />
          </mxGeometry>
        </mxCell>
        <mxCell id="meFjSfEneH2rQGpEeACA-39" value="" style="shape=flexArrow;endArrow=classic;html=1;rounded=0;fillColor=#dae8fc;strokeColor=#6c8ebf;" parent="1" edge="1">
          <mxGeometry width="50" height="50" relative="1" as="geometry">
            <mxPoint x="124.58" y="749" as="sourcePoint" />
            <mxPoint x="124.58" y="856" as="targetPoint" />
          </mxGeometry>
        </mxCell>
        <mxCell id="meFjSfEneH2rQGpEeACA-42" value="" style="endArrow=classic;html=1;rounded=0;strokeWidth=1.5;" parent="1" edge="1">
          <mxGeometry width="50" height="50" relative="1" as="geometry">
            <mxPoint x="192.5" y="557" as="sourcePoint" />
            <mxPoint x="243" y="557" as="targetPoint" />
          </mxGeometry>
        </mxCell>
        <mxCell id="meFjSfEneH2rQGpEeACA-46" value="" style="edgeStyle=orthogonalEdgeStyle;rounded=0;orthogonalLoop=1;jettySize=auto;html=1;" parent="1" source="meFjSfEneH2rQGpEeACA-44" target="meFjSfEneH2rQGpEeACA-45" edge="1">
          <mxGeometry relative="1" as="geometry" />
        </mxCell>
        <mxCell id="meFjSfEneH2rQGpEeACA-44" value="数据下载与提取" style="rounded=1;whiteSpace=wrap;html=1;fillColor=#f5f5f5;fontColor=#333333;strokeColor=#666666;" parent="1" vertex="1">
          <mxGeometry x="259" y="535" width="72" height="50" as="geometry" />
        </mxCell>
        <mxCell id="meFjSfEneH2rQGpEeACA-48" value="" style="edgeStyle=orthogonalEdgeStyle;rounded=0;orthogonalLoop=1;jettySize=auto;html=1;" parent="1" source="meFjSfEneH2rQGpEeACA-45" target="meFjSfEneH2rQGpEeACA-47" edge="1">
          <mxGeometry relative="1" as="geometry" />
        </mxCell>
        <mxCell id="meFjSfEneH2rQGpEeACA-45" value="将不同数据格式统一为Dataframe格式" style="whiteSpace=wrap;html=1;rounded=1;fillColor=#f5f5f5;fontColor=#333333;strokeColor=#666666;" parent="1" vertex="1">
          <mxGeometry x="361" y="530" width="120" height="60" as="geometry" />
        </mxCell>
        <mxCell id="meFjSfEneH2rQGpEeACA-47" value="数据预处理(清洗、插值、去除异常值等)" style="whiteSpace=wrap;html=1;rounded=1;fillColor=#f5f5f5;fontColor=#333333;strokeColor=#666666;" parent="1" vertex="1">
          <mxGeometry x="511" y="531.5" width="85" height="57" as="geometry" />
        </mxCell>
        <mxCell id="nndgGZtHMAi_NlpYqzj6-1" value="" style="rounded=0;whiteSpace=wrap;html=1;dashed=1;" vertex="1" parent="1">
          <mxGeometry x="245" y="658" width="376" height="124" as="geometry" />
        </mxCell>
        <mxCell id="nndgGZtHMAi_NlpYqzj6-7" value="" style="edgeStyle=orthogonalEdgeStyle;rounded=0;orthogonalLoop=1;jettySize=auto;html=1;" edge="1" parent="1" source="nndgGZtHMAi_NlpYqzj6-3" target="nndgGZtHMAi_NlpYqzj6-6">
          <mxGeometry relative="1" as="geometry" />
        </mxCell>
        <mxCell id="nndgGZtHMAi_NlpYqzj6-3" value="数据预处理与映射" style="rounded=1;whiteSpace=wrap;html=1;fillColor=#f5f5f5;fontColor=#333333;strokeColor=#666666;" vertex="1" parent="1">
          <mxGeometry x="255" y="690" width="74" height="51" as="geometry" />
        </mxCell>
        <mxCell id="nndgGZtHMAi_NlpYqzj6-9" value="" style="edgeStyle=orthogonalEdgeStyle;rounded=0;orthogonalLoop=1;jettySize=auto;html=1;" edge="1" parent="1" source="nndgGZtHMAi_NlpYqzj6-6" target="nndgGZtHMAi_NlpYqzj6-8">
          <mxGeometry relative="1" as="geometry" />
        </mxCell>
        <mxCell id="nndgGZtHMAi_NlpYqzj6-14" value="" style="edgeStyle=orthogonalEdgeStyle;rounded=0;orthogonalLoop=1;jettySize=auto;html=1;" edge="1" parent="1" source="nndgGZtHMAi_NlpYqzj6-6" target="nndgGZtHMAi_NlpYqzj6-13">
          <mxGeometry relative="1" as="geometry">
            <Array as="points">
              <mxPoint x="393" y="759" />
            </Array>
          </mxGeometry>
        </mxCell>
        <mxCell id="nndgGZtHMAi_NlpYqzj6-6" value="生成初步可视化图表" style="whiteSpace=wrap;html=1;rounded=1;fillColor=#f5f5f5;fontColor=#333333;strokeColor=#666666;" vertex="1" parent="1">
          <mxGeometry x="361" y="689" width="76.5" height="53" as="geometry" />
        </mxCell>
        <mxCell id="nndgGZtHMAi_NlpYqzj6-8" value="对图表进行优化与定制" style="whiteSpace=wrap;html=1;rounded=1;fillColor=#f5f5f5;fontColor=#333333;strokeColor=#666666;" vertex="1" parent="1">
          <mxGeometry x="468" y="696" width="102" height="39" as="geometry" />
        </mxCell>
        <mxCell id="nndgGZtHMAi_NlpYqzj6-13" value="多维度数据展示" style="whiteSpace=wrap;html=1;rounded=1;fillColor=#f5f5f5;fontColor=#333333;strokeColor=#666666;" vertex="1" parent="1">
          <mxGeometry x="451" y="748" width="111" height="29" as="geometry" />
        </mxCell>
        <mxCell id="nndgGZtHMAi_NlpYqzj6-15" value="" style="endArrow=classic;html=1;rounded=0;entryX=0.263;entryY=1.009;entryDx=0;entryDy=0;exitX=0.39;exitY=0;exitDx=0;exitDy=0;exitPerimeter=0;entryPerimeter=0;" edge="1" parent="1" source="nndgGZtHMAi_NlpYqzj6-13" target="nndgGZtHMAi_NlpYqzj6-8">
          <mxGeometry width="50" height="50" relative="1" as="geometry">
            <mxPoint x="481" y="748" as="sourcePoint" />
            <mxPoint x="531.5" y="737" as="targetPoint" />
          </mxGeometry>
        </mxCell>
        <mxCell id="nndgGZtHMAi_NlpYqzj6-20" value="对于xls格式文件，使用Pandas进行读取及数据清洗操作，对于nc格式文件则使用Xarray。&lt;div&gt;&lt;br&gt;&lt;div&gt;对于海洋海水物理化学性质计算，使用GSW工具箱&lt;span style=&quot;background-color: initial;&quot;&gt;。&lt;/span&gt;&lt;/div&gt;&lt;div&gt;&lt;span style=&quot;background-color: initial;&quot;&gt;&lt;br&gt;&lt;/span&gt;&lt;/div&gt;&lt;div&gt;可视化部分使用matplotlib与cartopy等绘图库绘制，参照官方说明书与官方API库。&lt;/div&gt;&lt;/div&gt;" style="rounded=1;whiteSpace=wrap;html=1;align=left;fillColor=#d5e8d4;strokeColor=#82b366;" vertex="1" parent="1">
          <mxGeometry x="682.5" y="504" width="112.5" height="284" as="geometry" />
        </mxCell>
        <mxCell id="nndgGZtHMAi_NlpYqzj6-23" value="" style="strokeWidth=1.5;html=1;shape=mxgraph.flowchart.annotation_2;align=left;labelPosition=right;pointerEvents=1;direction=west;" vertex="1" parent="1">
          <mxGeometry x="620" y="564" width="62" height="157" as="geometry" />
        </mxCell>
        <mxCell id="nndgGZtHMAi_NlpYqzj6-26" value="" style="rounded=0;whiteSpace=wrap;html=1;dashed=1;" vertex="1" parent="1">
          <mxGeometry x="242.5" y="822.25" width="381" height="125.5" as="geometry" />
        </mxCell>
        <mxCell id="nndgGZtHMAi_NlpYqzj6-32" value="" style="edgeStyle=orthogonalEdgeStyle;rounded=0;orthogonalLoop=1;jettySize=auto;html=1;" edge="1" parent="1" source="nndgGZtHMAi_NlpYqzj6-30" target="nndgGZtHMAi_NlpYqzj6-31">
          <mxGeometry relative="1" as="geometry">
            <Array as="points">
              <mxPoint x="350" y="885" />
              <mxPoint x="350" y="854" />
            </Array>
          </mxGeometry>
        </mxCell>
        <mxCell id="nndgGZtHMAi_NlpYqzj6-30" value="结果总结与解读" style="rounded=1;whiteSpace=wrap;html=1;fillColor=#f5f5f5;fontColor=#333333;strokeColor=#666666;" vertex="1" parent="1">
          <mxGeometry x="248" y="866.5" width="91" height="37" as="geometry" />
        </mxCell>
        <mxCell id="nndgGZtHMAi_NlpYqzj6-31" value="对比与验证" style="whiteSpace=wrap;html=1;fillColor=#f5f5f5;strokeColor=#666666;fontColor=#333333;rounded=1;" vertex="1" parent="1">
          <mxGeometry x="367.25" y="834.25" width="107.5" height="26.75" as="geometry" />
        </mxCell>
        <mxCell id="nndgGZtHMAi_NlpYqzj6-35" value="" style="endArrow=classic;html=1;rounded=0;entryX=0;entryY=0.5;entryDx=0;entryDy=0;" edge="1" parent="1" target="nndgGZtHMAi_NlpYqzj6-36">
          <mxGeometry width="50" height="50" relative="1" as="geometry">
            <mxPoint x="350" y="885" as="sourcePoint" />
            <mxPoint x="400" y="872" as="targetPoint" />
          </mxGeometry>
        </mxCell>
        <mxCell id="nndgGZtHMAi_NlpYqzj6-36" value="讨论结果的局限性" style="rounded=1;whiteSpace=wrap;html=1;fillColor=#f5f5f5;fontColor=#333333;strokeColor=#666666;" vertex="1" parent="1">
          <mxGeometry x="367.25" y="870" width="108.75" height="30" as="geometry" />
        </mxCell>
        <mxCell id="nndgGZtHMAi_NlpYqzj6-38" value="提出假设或未来研究方向" style="rounded=1;whiteSpace=wrap;html=1;fillColor=#f5f5f5;fontColor=#333333;strokeColor=#666666;" vertex="1" parent="1">
          <mxGeometry x="367.25" y="907" width="108.75" height="31" as="geometry" />
        </mxCell>
        <mxCell id="nndgGZtHMAi_NlpYqzj6-41" value="" style="endArrow=classic;html=1;rounded=0;entryX=0;entryY=0.5;entryDx=0;entryDy=0;" edge="1" parent="1" target="nndgGZtHMAi_NlpYqzj6-38">
          <mxGeometry width="50" height="50" relative="1" as="geometry">
            <mxPoint x="350" y="884" as="sourcePoint" />
            <mxPoint x="399" y="850" as="targetPoint" />
            <Array as="points">
              <mxPoint x="350" y="923" />
            </Array>
          </mxGeometry>
        </mxCell>
        <mxCell id="nndgGZtHMAi_NlpYqzj6-43" value="" style="verticalLabelPosition=bottom;verticalAlign=top;html=1;strokeWidth=2;shape=mxgraph.arrows2.arrow;dy=0.62;dx=40.95;notch=0;" vertex="1" parent="1">
          <mxGeometry x="481" y="877" width="65" height="16" as="geometry" />
        </mxCell>
        <mxCell id="nndgGZtHMAi_NlpYqzj6-44" value="结论" style="ellipse;whiteSpace=wrap;html=1;aspect=fixed;fillColor=#f5f5f5;fontColor=#333333;strokeColor=#666666;" vertex="1" parent="1">
          <mxGeometry x="554" y="854.5" width="61" height="61" as="geometry" />
        </mxCell>
        <mxCell id="nndgGZtHMAi_NlpYqzj6-50" value="" style="edgeStyle=orthogonalEdgeStyle;rounded=0;orthogonalLoop=1;jettySize=auto;html=1;entryX=1.001;entryY=0.396;entryDx=0;entryDy=0;entryPerimeter=0;" edge="1" parent="1" source="nndgGZtHMAi_NlpYqzj6-45" target="nndgGZtHMAi_NlpYqzj6-26">
          <mxGeometry relative="1" as="geometry" />
        </mxCell>
        <mxCell id="nndgGZtHMAi_NlpYqzj6-45" value="&lt;div style=&quot;text-align: justify;&quot;&gt;统计分析&lt;/div&gt;&lt;div style=&quot;text-align: justify;&quot;&gt;&lt;br&gt;&lt;/div&gt;&lt;div style=&quot;text-align: justify;&quot;&gt;时间序列分析&lt;/div&gt;&lt;div style=&quot;text-align: justify;&quot;&gt;&lt;br&gt;&lt;/div&gt;&lt;div style=&quot;text-align: justify;&quot;&gt;空间分析&lt;/div&gt;&lt;div style=&quot;text-align: justify;&quot;&gt;&lt;br&gt;&lt;/div&gt;&lt;div style=&quot;text-align: justify;&quot;&gt;相关性与因果分析&lt;/div&gt;" style="rounded=1;whiteSpace=wrap;html=1;fillColor=#d5e8d4;strokeColor=#82b366;" vertex="1" parent="1">
          <mxGeometry x="683.5" y="803.75" width="110.5" height="134.25" as="geometry" />
        </mxCell>
      </root>
    </mxGraphModel>
  </diagram>
</mxfile>
